# AST/ASF file generated using VICON BodyLanguage
# -----------------------------------------------
:version 1.10
:name VICON
:units
  mass 1.0
  length 0.45
  angle deg
:documentation
   .ast/.asf automatically generated from VICON data using
   VICON BodyBuilder and BodyLanguage model FoxedUp or BRILLIANT.MOD
:root
   order TX TY TZ RX RY RZ
   axis XYZ
   position 0 0 0  
   orientation 0 0 0 
:bonedata
  begin
     id 1 
     name lhipjoint
     direction 0.661853 -0.702389 0.261917 
     length 2.64193 
     axis 0 0 0  XYZ
  end
  begin
     id 2 
     name lfemur
     direction 0.34202 -0.939693 0  
     length 7.01722  
     axis 0 0 20  XYZ
    dof rx ry rz
    limits (-160.0 20.0)
           (-70.0 70.0)
           (-60.0 70.0)
  end
  begin
     id 3 
     name ltibia
     direction 0.34202 -0.939693 0   
     length 8.25008   
     axis 0 0 20   XYZ
    dof rx
    limits (-10.0 170.0)
  end
  begin
     id 4 
     name lfoot
     direction 0.0709916 -0.195048 0.978221   
     length 2.31941   
     axis -90 7.62852e-016 20   XYZ
    dof rx rz
    limits (-45.0 90.0)
           (-70.0 20.0)
  end
  begin
     id 5 
     name ltoes
     direction 1.53586e-011 -4.22017e-011 1   
     length 1.16486   
     axis -90 7.62852e-016 20   XYZ
    dof rx
    limits (-90.0 20.0)
  end
  begin
     id 6 
     name rhipjoint
     direction -0.638185 -0.721362 0.268992   
     length 2.57244  
     axis 0 0 0  XYZ 
  end
  begin
     id 7 
     name rfemur
     direction -0.34202 -0.939693 0   
     length 7.07017   
     axis 0 0 -20   XYZ
    dof rx ry rz
    limits (-160.0 20.0)
           (-70.0 70.0)
           (-70.0 60.0)
  end
  begin
     id 8 
     name rtibia
     direction -0.34202 -0.939693 0   
     length 8.20386   
     axis 0 0 -20   XYZ
    dof rx
    limits (-10.0 170.0)
 end
 begin
     id 9 
     name rfoot
     direction -0.0822429 -0.225961 0.970658   
     length 2.32215  
     axis -90 -7.62852e-016 -20   XYZ
    dof rx rz
    limits (-45.0 90.0)
           (-20.0 70.0)
  end
  begin
     id 10 
     name rtoes
     direction -1.53597e-011 -4.21689e-011 1   
     length 1.16333   
     axis -90 -7.62852e-016 -20   XYZ
    dof rx
    limits (-90.0 20.0)
  end
  begin
     id 11 
     name lowerback
     direction -0.0131557 0.998589 -0.0514484   
     length 2.14993   
     axis 0 0 0   XYZ
    dof rx ry rz
    limits (-20.0 45.0)
           (-30.0 30.0)
           (-30.0 30.0)
  end
  begin
     id 12 
     name upperback
     direction -0.000776481 0.999993 0.00352685   
     length 2.15301   
     axis 0 0 0   XYZ
    dof rx ry rz
    limits (-20.0 45.0)
           (-30.0 30.0)
           (-30.0 30.0)
  end
  begin
     id 13 
     name thorax
     direction 0.00438186 0.999609 0.0276143   
     length 2.15424   
     axis 0 0 0   XYZ
    dof rx ry rz
    limits (-20.0 45.0)
           (-30.0 30.0)
           (-30.0 30.0)
  end
  begin
     id 14 
     name lowerneck
     direction -0.0488006 0.998094 0.0377807   
     length 1.90481   
     axis 0 0 0   XYZ
    dof rx ry rz
    limits (-20.0 45.0)
           (-30.0 30.0)
           (-30.0 30.0)
  end
  begin
     id 15 
     name upperneck
     direction 0.0443769 0.990702 -0.12861   
     length 1.91305   
     axis 0 0 0   XYZ
    dof rx ry rz
    limits (-20.0 45.0)
           (-30.0 30.0)
           (-30.0 30.0)
  end
  begin
     id 16
     name head
     direction 0.0165599 0.998647 -0.0492982  
     length 1.92369  
     axis 0 0 0   XYZ
    dof rx ry rz
    limits (-20.0 45.0)
           (-30.0 30.0)
           (-30.0 30.0)
  end
  begin
     id 17 
     name lclavicle
     direction 0.911936 0.410197 -0.0105506  
     length 3.52622  
     axis 0 0 0   XYZ
    dof ry rz
    limits (-20.0 10.0)
           (0.0 20.0)
  end
  begin
     id 18 
     name lhumerus
     direction 1 -4.48974e-011 -2.48591e-028   
     length 5.47651   
     axis 180 -30 -90   XYZ
    dof rx ry rz
    limits (-60.0 90.0)
           (-90.0 90.0)
           (-90.0 90.0)
  end
  begin
     id 19
     name lradius
     direction 1 -4.48938e-011 -4.40099e-027   
     length 3.09058   
     axis 180 -30 -90   XYZ
    dof rx
    limits (-10.0 170.0)
  end
  begin
     id 20
     name lwrist
     direction 1 -4.49042e-011 -2.99852e-027   
     length 1.54529   
     axis 1.95339e-015 90 90   XYZ
    dof ry
    limits (-180.0 0.0)
 end
  begin
     id 21 
     name lhand
     direction 1 -4.48815e-011 -5.98193e-027   
     length 0.771611   
     axis 3.82337e-015 90 90   XYZ
    dof rx rz
    limits (-90.0 90.0)
           (-45.0 45.0)
  end
  begin
     id 22 
     name lfingers
     direction 1 -4.49034e-011 -1.1993e-026   
     length 0.622093   
     axis 7.64668e-015 90 90   XYZ
    dof rx
    limits (0.0 90.0)
  end
  begin
     id 23
     name lthumb
     direction 0.707107 -6.34867e-011 0.707107   
     length 0.893204   
     axis -90 45 -1.62303e-014   XYZ
    dof rx rz
    limits (-45.0 45.0)
           (-45.0 45.0)
  end
  begin
     id 24 
     name rclavicle
     direction -0.93442 0.355634 -0.0195692   
     length 3.62463  
     axis 0 0 0   XYZ 
    dof ry rz
    limits (-10.0 20.0)
           (-20.0 0.0)
  end
  begin
     id 25 
     name rhumerus
     direction -1 -4.48957e-011 -1.19147e-027  
     length 5.14182   
     axis 180 30 90   XYZ
    dof rx ry rz
    limits (-90.0 60.0)
           (-90.0 90.0)
           (-90.0 90.0)
  end
  begin
     id 26 
     name rradius
     direction -1 -4.48952e-011 -3.81062e-027   
     length 3.35565   
     axis 180 30 90   XYZ
    dof rx
    limits (-10.0 170.0)
  end
  begin
     id 27 
     name rwrist
     direction -1 -4.48973e-011 -2.99621e-027   
     length 1.67782   
     axis 1.95339e-015 -90 -90   XYZ
    dof ry
    limits (-180.0 0.0)
  end
  begin
     id 28
     name rhand
     direction -1 -4.48895e-011 -5.98727e-027   
     length 0.801042   
     axis 3.82337e-015 -90 -90   XYZ
    dof rx rz
    limits (-90.0 90.0)
           (-45.0 45.0)
  end
  begin
     id 29
     name rfingers
     direction -1 -4.49065e-011 -1.19972e-026   
     length 0.645821   
     axis 7.64668e-015 -90 -90   XYZ
    dof rx
    limits (0.0 90.0)
  end
  begin
     id 30
     name rthumb
     direction -0.707107 -6.34957e-011 0.707107   
     length 0.927273   
     axis -90 -45 1.62303e-014   XYZ
    dof rx rz
    limits (-45.0 45.0)
           (-45.0 45.0)
  end
:hierarchy
  begin
    root lhipjoint rhipjoint lowerback
    lhipjoint lfemur
    lfemur ltibia
    ltibia lfoot
    lfoot ltoes
    rhipjoint rfemur
    rfemur rtibia
    rtibia rfoot
    rfoot rtoes
    lowerback upperback
    upperback thorax
    thorax lowerneck lclavicle rclavicle
    lowerneck upperneck
    upperneck head
    lclavicle lhumerus
    lhumerus lradius
    lradius lwrist
    lwrist lhand lthumb
    lhand lfingers
    rclavicle rhumerus
    rhumerus rradius
    rradius rwrist
    rwrist rhand rthumb
    rhand rfingers
  end

#!OML:ASF E:\Style4\Style4.ASF
:FULLY-SPECIFIED
:DEGREES
106
root -0.590697 18.0194 -0.879235 4.32792 0.0250448 2.37184
lowerback 8.52536 1.62829 -0.437815
upperback 2.38886 2.11662 -0.243634
thorax -2.31003 1.0543 -0.224448
lowerneck -3.17241 -5.77123 -5.2526
upperneck 0.520747 -7.54654 3.29694
head 1.04468 -3.7525 1.7623
rclavicle -4.1049e-014 1.07344e-014
rhumerus -41.8974 13.036 -89.5155
rradius 57.8641
rwrist -0.257844
rhand -18.1655 11.6104
rfingers 7.12502
rthumb 8.11062 -18.214
lclavicle -4.1049e-014 1.07344e-014
lhumerus -45.9958 -27.7701 97.6207
lradius 63.8666
lwrist 3.42692
lhand -11.0922 28.2686
lfingers 7.12502
lthumb 14.9316 57.7104
rfemur -15.0496 4.64238 18.6543
rtibia 27.4293
rfoot -16.1446 -14.9181
rtoes -7.40977
lfemur -12.865 -3.95635 -18.9659
ltibia 22.6049
lfoot -14.0785 12.4595
ltoes -19.4341
107
root -0.591063 18.0061 -0.905261 4.33149 0.0461034 2.50451
lowerback 8.75515 1.63699 -0.584008
upperback 2.61632 2.11389 -0.258793
thorax -2.20669 1.05289 -0.160626
lowerneck -2.99895 -5.73312 -5.22615
upperneck -0.0306284 -7.4991 3.32606
head 0.838173 -3.72714 1.78112
rclavicle -3.16068e-014 -4.37326e-015
rhumerus -42.1335 13.2312 -89.7688
rradius 58.4014
rwrist 0.889471
rhand -18.2427 11.2892
rfingers 7.12502
rthumb 8.0361 -18.538
lclavicle -3.16068e-014 -4.37326e-015
lhumerus -46.0895 -27.754 97.7944
lradius 64.0904
lwrist 2.81782
lhand -11.622 28.3627
lfingers 7.12502
lthumb 14.4213 57.8417
rfemur -15.4656 4.58397 18.5065
rtibia 28.0164
rfoot -16.2998 -14.9343
rtoes -7.64349
lfemur -13.2187 -3.84633 -19.1091
ltibia 23.0483
lfoot -14.0871 12.3791
ltoes -19.9548
108
root -0.591191 17.9936 -0.926866 4.35637 0.0734 2.57033
lowerback 8.92729 1.66083 -0.631026
upperback 2.83939 2.14036 -0.266763
thorax -2.0726 1.06569 -0.146329
lowerneck -2.89927 -5.71211 -5.22905
upperneck -0.487349 -7.47095 3.361
head 0.677514 -3.71134 1.80319
rclavicle 0 -1.31198e-014
rhumerus -42.393 13.3441 -89.9777
rradius 59.0254
rwrist 2.16826
rhand -17.8551 10.8462
rfingers 7.12502
rthumb 8.41022 -18.9663
lclavicle 0 -1.31198e-014
lhumerus -46.1994 -27.8757 98.0107
lradius 64.3151
lwrist 2.33388
lhand -12.0439 28.687
lfingers 7.12502
lthumb 14.0147 58.1945
rfemur -15.8634 4.49461 18.4287
rtibia 28.5582
rfoot -16.4474 -14.9397
rtoes -7.87316
lfemur -13.5528 -3.78196 -19.1791
ltibia 23.4682
lfoot -14.2578 12.3027
ltoes -20.0286
109
root -0.592719 17.9818 -0.949819 4.43146 0.107174 2.64484
lowerback 9.09226 1.67767 -0.7175
upperback 3.02241 2.15437 -0.255511
thorax -1.97794 1.07213 -0.0893838
lowerneck -2.82186 -5.68965 -5.25085
upperneck -0.867488 -7.43987 3.36346
head 0.544404 -3.69442 1.81665
rclavicle 5.86415e-015 -1.15295e-014
rhumerus -42.6935 13.4579 -90.1878
rradius 59.7214
rwrist 3.53624
rhand -17.2916 10.4334
rfingers 7.12502
rthumb 8.95395 -19.3566
lclavicle 5.86415e-015 -1.15295e-014
lhumerus -46.324 -27.9655 98.2286
lradius 64.5116
lwrist 1.88069
lhand -12.4504 28.9759
lfingers 7.12502
lthumb 13.623 58.5101
rfemur -16.3067 4.41702 18.3469
rtibia 29.0633
rfoot -16.523 -14.9547
rtoes -8.12619
lfemur -13.9365 -3.71851 -19.2439
ltibia 23.861
lfoot -14.3884 12.1469
ltoes -19.6874
110
root -0.594941 17.9692 -0.974114 4.49477 0.186221 2.67304
lowerback 9.32128 1.67569 -0.740223
upperback 3.1751 2.14815 -0.241522
thorax -1.94745 1.06855 -0.0657882
lowerneck -2.73319 -5.66875 -5.269
upperneck -1.21646 -7.41229 3.40222
head 0.421098 -3.67928 1.84113
rclavicle -1.68967e-015 -7.95139e-016
rhumerus -43.0984 13.6207 -90.4643
rradius 60.5197
rwrist 4.91078
rhand -16.722 9.97308
rfingers 7.12502
rthumb 9.50359 -19.7926
lclavicle -1.68967e-015 -7.95139e-016
lhumerus -46.5113 -28.041 98.4196
lradius 64.6501
lwrist 1.1925
lhand -12.8108 29.0828
lfingers 7.12502
lthumb 13.2756 58.64
rfemur -16.708 4.33382 18.3188
rtibia 29.5185
rfoot -16.6627 -14.9108
rtoes -7.93411
lfemur -14.3262 -3.72264 -19.2521
ltibia 24.2672
lfoot -14.477 11.9827
ltoes -19.1973
111
root -0.597239 17.9575 -0.99505 4.55248 0.286032 2.78529
lowerback 9.54246 1.68442 -0.79489
upperback 3.31131 2.15205 -0.271197
thorax -1.92898 1.07011 -0.0704776
lowerneck -2.55646 -5.65856 -5.31787
upperneck -1.62827 -7.40194 3.5015
head 0.268069 -3.67283 1.89406
rclavicle 1.75924e-014 -3.97569e-016
rhumerus -43.5852 13.8522 -90.8018
rradius 61.4021
rwrist 6.13323
rhand -16.0715 9.36201
rfingers 7.12502
rthumb 10.1311 -20.3741
lclavicle 1.75924e-014 -3.97569e-016
lhumerus -46.6638 -28.115 98.6046
lradius 64.6609
lwrist 0.291321
lhand -13.0354 29.0414
lfingers 7.12502
lthumb 13.059 58.6126
rfemur -17.0755 4.25706 18.1972
rtibia 29.9566
rfoot -16.8317 -14.9083
rtoes -7.75335
lfemur -14.7096 -3.75491 -19.3599
ltibia 24.6923
lfoot -14.552 11.8712
ltoes -19.0176
112
root -0.600442 17.9479 -1.0135 4.72019 0.456779 2.81323
lowerback 9.61473 1.66603 -0.739493
upperback 3.42113 2.13222 -0.285161
thorax -1.85238 1.06024 -0.113851
lowerneck -2.49131 -5.64561 -5.39046
upperneck -1.90579 -7.38287 3.60733
head 0.176802 -3.66184 1.948
rclavicle -8.34896e-015 8.74653e-015
rhumerus -44.0792 14.1375 -91.1688
rradius 62.2589
rwrist 7.30654
rhand -15.4533 8.82589
rfingers 7.12502
rthumb 10.7275 -20.8802
lclavicle -8.34896e-015 8.74653e-015
lhumerus -46.7556 -28.2742 98.791
lradius 64.6268
lwrist -0.426712
lhand -13.2886 28.6841
lfingers 7.12502
lthumb 12.815 58.2707
rfemur -17.5182 4.20242 18.1653
rtibia 30.3547
rfoot -16.9749 -15.0041
rtoes -7.56979
lfemur -15.2287 -3.78599 -19.359
ltibia 25.1296
lfoot -14.6006 11.7314
ltoes -18.8948
113
root -0.603949 17.9355 -1.03311 4.89001 0.658834 2.85089
lowerback 9.71352 1.65871 -0.679276
upperback 3.50493 2.12644 -0.327609
thorax -1.81606 1.05769 -0.192204
lowerneck -2.45292 -5.66258 -5.34966
upperneck -2.11509 -7.40593 3.65404
head 0.106246 -3.67289 1.96046
rclavicle 5.36719e-015 7.95139e-015
rhumerus -44.5834 14.2658 -91.595
rradius 63.0983
rwrist 8.59328
rhand -14.8433 8.50518
rfingers 7.12502
rthumb 11.3158 -21.1696
lclavicle 5.36719e-015 7.95139e-015
lhumerus -46.9373 -28.639 99.0125
lradius 64.846
lwrist -1.00789
lhand -13.5606 28.9437
lfingers 7.12502
lthumb 12.5528 58.5466
rfemur -17.9463 4.10065 18.1345
rtibia 30.7247
rfoot -17.0531 -15.1186
rtoes -7.7253
lfemur -15.7515 -3.80406 -19.3654
ltibia 25.5391
lfoot -14.6294 11.6264
ltoes -19.2468
114
root -0.606904 17.923 -1.05602 4.90911 0.916127 2.8599
lowerback 10.0183 1.61854 -0.564889
upperback 3.60382 2.08081 -0.350802
thorax -1.87584 1.03546 -0.282674
lowerneck -2.37199 -5.65985 -5.39856
upperneck -2.29942 -7.4025 3.772
head 0.0416957 -3.67069 2.01308
rclavicle 1.89839e-014 -3.57812e-015
rhumerus -45.1002 14.4613 -92.0759
rradius 63.9964
rwrist 9.72931
rhand -14.169 8.12514
rfingers 7.12502
rthumb 11.9661 -21.5128
lclavicle 1.89839e-014 -3.57812e-015
lhumerus -47.1078 -28.9574 99.1948
lradius 65.1616
lwrist -1.72038
lhand -13.6612 29.4766
lfingers 7.12502
lthumb 12.4557 59.0855
rfemur -18.1787 3.94637 18.1443
rtibia 31.0346
rfoot -17.1132 -15.2321
rtoes -7.87974
lfemur -16.1163 -3.93499 -19.3517
ltibia 25.9372
lfoot -14.6578 11.65
ltoes -20.0824
115
root -0.610705 17.9148 -1.07824 4.93905 1.20897 2.88183
lowerback 10.3026 1.54773 -0.499988
upperback 3.69539 1.99168 -0.336359
thorax -1.93503 0.991266 -0.300672
lowerneck -2.32455 -5.62455 -5.53284
upperneck -2.46793 -7.35186 3.90865
head -0.0104968 -3.64412 2.0864
rclavicle 1.97791e-014 -4.77083e-015
rhumerus -45.6167 14.8798 -92.5799
rradius 65.0688
rwrist 10.3334
rhand -13.3997 7.38651
rfingers 7.12502
rthumb 12.7079 -22.2068
lclavicle 1.97791e-014 -4.77083e-015
lhumerus -47.1594 -29.0598 99.2368
lradius 65.3032
lwrist -2.7896
lhand -13.5187 28.7177
lfingers 7.12502
lthumb 12.5932 58.3182
rfemur -18.3896 3.76495 18.1297
rtibia 31.2976
rfoot -17.2325 -15.2926
rtoes -7.70777
lfemur -16.4727 -4.12779 -19.3492
ltibia 26.3049
lfoot -14.6952 11.5984
ltoes -20.1537
116
root -0.61754 17.9083 -1.09958 4.93163 1.49797 2.84995
lowerback 10.6033 1.47981 -0.411967
upperback 3.78277 1.90993 -0.288247
thorax -2.00786 0.950689 -0.297701
lowerneck -2.26963 -5.60472 -5.69307
upperneck -2.6215 -7.3219 4.0453
head -0.057514 -3.62782 2.16411
rclavicle -7.7526e-015 -6.36111e-015
rhumerus -46.1667 15.3263 -93.0576
rradius 66.3205
rwrist 10.5148
rhand -12.3871 6.52662
rfingers 7.12502
rthumb 13.6839 -23.0035
lclavicle -7.7526e-015 -6.36111e-015
lhumerus -47.2433 -29.2962 99.3234
lradius 65.767
lwrist -3.63978
lhand -13.1229 28.5231
lfingers 7.12502
lthumb 12.9747 58.0997
rfemur -18.5092 3.63105 18.1917
rtibia 31.4797
rfoot -17.3275 -15.3875
rtoes -7.51456
lfemur -16.7698 -4.26546 -19.2778
ltibia 26.6405
lfoot -14.7155 11.3917
ltoes -19.7772
117
root -0.623699 17.9017 -1.1167 4.98187 1.69021 2.79917
lowerback 10.7837 1.4622 -0.298163
upperback 3.84342 1.89844 -0.247051
thorax -2.04132 0.945241 -0.321598
lowerneck -2.15674 -5.6012 -5.68906
upperneck -2.7838 -7.32163 4.01739
head -0.128943 -3.62775 2.16129
rclavicle 2.99171e-014 -1.59028e-014
rhumerus -46.6888 15.6253 -93.4549
rradius 67.5191
rwrist 10.6192
rhand -11.5193 6.21551
rfingers 7.12502
rthumb 14.5202 -23.2564
lclavicle 2.99171e-014 -1.59028e-014
lhumerus -47.4076 -29.7661 99.5183
lradius 66.6988
lwrist -4.04692
lhand -12.5906 29.7266
lfingers 7.12502
lthumb 13.4878 59.2698
rfemur -18.6597 3.52403 18.2701
rtibia 31.583
rfoot -17.3762 -15.4064
rtoes -7.20337
lfemur -17.089 -4.33521 -19.1835
ltibia 26.9436
lfoot -14.7193 11.2507
ltoes -19.7725
118
root -0.623366 17.898 -1.12285 5.13238 1.62576 2.66722
lowerback 10.6694 1.5239 -0.0945444
upperback 3.91587 2.00237 -0.210443
thorax -1.89776 0.997988 -0.406092
lowerneck -1.97443 -5.58597 -5.43507
upperneck -3.04611 -7.31598 3.72662
head -0.263831 -3.62611 2.0344
rclavicle 1.82882e-014 -1.03368e-014
rhumerus -47.1639 15.8994 -93.7918
rradius 68.6945
rwrist 11.0758
rhand -10.9761 6.26709
rfingers 7.12502
rthumb 15.0435 -23.1664
lclavicle 1.82882e-014 -1.03368e-014
lhumerus -47.4852 -30.1251 99.5597
lradius 67.7825
lwrist -4.54001
lhand -11.8482 30.6317
lfingers 7.12502
lthumb 14.2033 60.1261
rfemur -18.8978 3.54769 18.401
rtibia 31.6205
rfoot -17.3449 -15.3386
rtoes -7.10866
lfemur -17.447 -4.22342 -19.0304
ltibia 27.2327
lfoot -14.7105 11.339
ltoes -20.5332
119
root -0.626032 17.897 -1.12494 5.19266 1.5264 2.49711
lowerback 10.5787 1.58177 0.0938877
upperback 4.02843 2.09932 -0.156212
thorax -1.72622 1.04756 -0.46246
lowerneck -1.90564 -5.53172 -5.43111
upperneck -3.15911 -7.24664 3.69022
head -0.315716 -3.59112 2.02778
rclavicle 1.88845e-014 -9.54166e-015
rhumerus -47.585 16.2101 -94.0853
rradius 69.9681
rwrist 11.8984
rhand -10.6002 6.30172
rfingers 7.12502
rthumb 15.4056 -23.1043
lclavicle 1.88845e-014 -9.54166e-015
lhumerus -47.4184 -30.3562 99.3579
lradius 68.9452
lwrist -5.10513
lhand -10.8064 30.6324
lfingers 7.12502
lthumb 15.207 60.0535
rfemur -18.9959 3.59801 18.5914
rtibia 31.6305
rfoot -17.3007 -15.3075
rtoes -7.11881
lfemur -17.6606 -4.09035 -18.8318
ltibia 27.4854
lfoot -14.7471 11.3863
ltoes -21.1549
